# xmcd
#
# Track frame offsets:
#	150
#	28507
#	42869
#	65935
#	92277
#	111876
#	127990
#	148418
#	171676
#	211421
#
# Disc length: 3168 seconds
#
# Revision: 3
# Processed by: cddbd v1.5.1PL2 Copyright (c) Steve Scherf et al.
# Submitted via: EasyCDDAExtractor 8.0.2.1
#
DISCID=960c5e0a
DTITLE=Saxon - Solnahallen Stockholm 19-10-86 Disc 1
DYEAR=1986
DGENRE=Hard Rock
TTITLE0=Back On The Streets
TTITLE1=And The Bands Played On
TTITLE2=Battle Cry
TTITLE3=Dallas 1PM
TTITLE4=Rock The Nations
TTITLE5=20 000 Feets
TTITLE6=We Came Here To Rock
TTITLE7=Strong Arm Of The Law
TTITLE8=This Town Knows How To Rock
TTITLE9=Power and Glory
EXTD=
EXTT0=
EXTT1=
EXTT2=
EXTT3=
EXTT4=
EXTT5=
EXTT6=
EXTT7=
EXTT8=
EXTT9=
PLAYORDER=
